<?xml version="1.0" encoding="UTF-8"?> <svg xmlns="http://www.w3.org/2000/svg" width="788" height="271" viewBox="0 0 788 271" fill="none"><path d="M239.67 24H25.631C24.311 24 23.045 24.524 22.112 25.458C21.178 26.391 20.654 27.657 20.654 28.978V243.017C20.654 244.337 21.178 245.603 22.112 246.536C23.045 247.47 24.311 247.994 25.631 247.994H239.67C240.991 247.994 242.257 247.47 243.19 246.536C244.124 245.603 244.648 244.337 244.648 243.017V28.978C244.648 27.657 244.124 26.391 243.19 25.458C242.257 24.524 240.991 24 239.67 24ZM169.983 168.352C169.983 169.672 169.459 170.938 168.525 171.872C167.592 172.805 166.326 173.33 165.006 173.33H100.296C98.976 173.33 97.71 172.805 96.776 171.872C95.843 170.938 95.319 169.672 95.319 168.352V103.642C95.319 102.322 95.843 101.056 96.776 100.123C97.71 99.189 98.976 98.665 100.296 98.665H165.006C166.326 98.665 167.592 99.189 168.525 100.123C169.459 101.056 169.983 102.322 169.983 103.642V168.352Z" fill="black"></path><path d="M687.783 98.673H623.074C620.325 98.673 618.096 100.901 618.096 103.65V168.36C618.096 171.109 620.325 173.338 623.074 173.338H687.783C690.532 173.338 692.761 171.109 692.761 168.36V103.65C692.761 100.901 690.532 98.673 687.783 98.673Z" fill="black"></path><path d="M613.088 24.006H548.379C545.63 24.006 543.401 26.234 543.401 28.984V93.693C543.401 96.442 545.63 98.671 548.379 98.671H613.088C615.838 98.671 618.066 96.442 618.066 93.693V28.984C618.066 26.234 615.838 24.006 613.088 24.006Z" fill="black"></path><path d="M762.418 24.006H697.708C694.959 24.006 692.73 26.234 692.73 28.984V93.693C692.73 96.442 694.959 98.671 697.708 98.671H762.418C765.167 98.671 767.395 96.442 767.395 93.693V28.984C767.395 26.234 765.167 24.006 762.418 24.006Z" fill="black"></path><path d="M613.088 173.334H548.379C545.63 173.334 543.401 175.562 543.401 178.311V243.021C543.401 245.77 545.63 247.999 548.379 247.999H613.088C615.838 247.999 618.066 245.77 618.066 243.021V178.311C618.066 175.562 615.838 173.334 613.088 173.334Z" fill="black"></path><path d="M762.418 173.334H697.708C694.959 173.334 692.73 175.562 692.73 178.311V243.021C692.73 245.77 694.959 247.999 697.708 247.999H762.418C765.167 247.999 767.395 245.77 767.395 243.021V178.311C767.395 175.562 765.167 173.334 762.418 173.334Z" fill="black"></path><path d="M500.997 24.006H436.288C433.539 24.006 431.31 26.234 431.31 28.984V93.693C431.31 96.442 433.539 98.671 436.288 98.671H500.997C503.746 98.671 505.975 96.442 505.975 93.693V28.984C505.975 26.234 503.746 24.006 500.997 24.006Z" fill="black"></path><path d="M500.997 173.334H436.288C433.539 173.334 431.31 175.562 431.31 178.311V243.021C431.31 245.77 433.539 247.999 436.288 247.999H500.997C503.746 247.999 505.975 245.77 505.975 243.021V178.311C505.975 175.562 503.746 173.334 500.997 173.334Z" fill="black"></path><path d="M431.31 103.586C431.31 102.266 430.785 101 429.852 100.067C428.918 99.133 427.652 98.609 426.332 98.609H356.645V28.978C356.645 27.657 356.12 26.391 355.187 25.458C354.253 24.524 352.987 24 351.667 24H286.958C285.637 24 284.371 24.524 283.438 25.458C282.504 26.391 281.98 27.657 281.98 28.978V242.905C281.98 244.225 282.504 245.491 283.438 246.424C284.371 247.358 285.637 247.882 286.958 247.882H351.667C352.987 247.882 354.253 247.358 355.187 246.424C356.12 245.491 356.645 244.225 356.645 242.905V173.274H426.332C427.652 173.274 428.918 172.749 429.852 171.816C430.785 170.882 431.31 169.616 431.31 168.296V103.586Z" fill="black"></path></svg> 