<?xml version="1.0" encoding="UTF-8"?> <svg xmlns="http://www.w3.org/2000/svg" width="566" height="465" viewBox="0 0 566 465" fill="none"><path d="M480.932 163.156L422.181 129.261L308.069 213.998L278.693 195.921L235.76 233.205" stroke="white"></path><circle cx="424.28" cy="130.529" r="4.15052" transform="rotate(-180 424.28 130.529)" fill="#5B84C0"></circle><circle cx="309.038" cy="214.699" r="4.15052" transform="rotate(-180 309.038 214.699)" fill="#5B84C0"></circle><circle cx="279.662" cy="196.625" r="4.15052" transform="rotate(-180 279.662 196.625)" fill="#5B84C0"></circle><circle cx="234.47" cy="235.037" r="4.15052" transform="rotate(-180 234.47 235.037)" fill="#5B84C0"></circle><circle cx="483.031" cy="164.426" r="4.15052" transform="rotate(-180 483.031 164.426)" fill="#5B84C0"></circle><path d="M363.862 193.77L299.001 231.19L173.021 137.64L140.59 157.597L93.1915 116.436" stroke="white"></path><circle r="4.58218" transform="matrix(-1 0 0 1 301.319 229.791)" fill="#5B84C0"></circle><circle r="4.58218" transform="matrix(-1 0 0 1 174.091 136.869)" fill="#5B84C0"></circle><circle r="4.58218" transform="matrix(-1 0 0 1 141.66 156.82)" fill="#5B84C0"></circle><circle r="4.58218" transform="matrix(-1 0 0 1 91.7685 114.414)" fill="#5B84C0"></circle><circle r="4.58218" transform="matrix(-1 0 0 1 366.18 192.371)" fill="#5B84C0"></circle><path d="M269.485 431.68C412.44 447.958 547.174 431.68 549.675 396.45C549.675 382.758 430.95 371.658 284.496 371.658C138.041 371.658 15.0272 382.758 15.0272 396.45C15.0272 410.142 147.26 417.762 269.485 431.68Z" fill="#354180"></path><rect x="92.222" y="299.158" width="9.71932" height="67.9099" stroke="white"></rect><rect x="109.066" y="325.195" width="9.71932" height="41.8773" stroke="white"></rect><rect x="125.911" y="288.441" width="9.71932" height="78.6292" stroke="white"></rect><rect x="142.755" y="271.598" width="9.71932" height="95.4738" stroke="white"></rect><path d="M395.425 387.35C395.425 387.35 381.47 393.233 350.103 395.707C332.931 397.045 310.535 397.351 282.35 395.09C202.685 401.486 169.276 387.35 169.276 387.35C107.486 324.256 179.574 189.069 205.32 156.87C217.222 141.996 234.612 135.923 249.881 133.685C260.649 132.141 271.58 132.131 282.35 133.656C293.122 132.131 304.056 132.141 314.825 133.685C322.944 134.873 331.668 137.145 339.839 141.263C347.408 144.982 354.075 150.308 359.375 156.87C385.126 189.069 457.215 324.256 395.425 387.35Z" fill="url(#paint0_linear_1728_360)"></path><path d="M343.713 53.9694C343.713 53.9694 337.318 23.369 284.421 49.9686C231.523 76.5683 331.732 70.5442 331.732 70.5442C331.732 70.5442 344.364 62.9027 343.713 53.9694Z" fill="#4FA39A"></path><path d="M240.184 102.079C240.184 102.079 204.719 62.8464 224.072 45.4398C239.253 31.8008 283.196 49.4785 301.452 57.7116C309.32 61.3079 317.867 63.1882 326.52 63.2272C335.027 63.2272 343.574 61.5367 343.736 54.7749C343.736 54.7749 344.314 84.6551 322.256 102.085C300.198 119.514 240.184 102.079 240.184 102.079Z" fill="url(#paint1_linear_1728_360)"></path><path d="M281.016 108.675C281.016 108.675 307.562 99.6677 315.713 81.8047C315.713 81.8047 315.386 99.016 302.671 105.835C289.956 112.655 281.016 108.675 281.016 108.675Z" fill="#4FA39A"></path><path d="M322.767 101.822H240.6C236.389 101.822 232.974 105.151 232.974 109.257V110.402C232.974 114.508 236.389 117.836 240.6 117.836H322.767C326.979 117.836 330.393 114.508 330.393 110.402V109.257C330.393 105.151 326.979 101.822 322.767 101.822Z" fill="#262F63"></path><path d="M214.29 376.732C214.29 376.732 286.073 415.767 350.41 376.732C350.41 376.732 282.873 388.508 214.29 376.732Z" fill="#4FA39A"></path><path d="M240.979 71.1309C240.979 71.1309 245.782 97.8289 265 101.824C265 101.824 243.866 82.9638 240.979 71.1309Z" fill="#4FA39A"></path><path d="M181.842 264.633C181.842 264.633 173.01 317.394 210.288 331.358C210.288 331.358 179.879 293.464 181.842 264.633Z" fill="#4FA39A"></path><path opacity="0.34" d="M276.347 273.974C302.511 273.974 323.721 252.764 323.721 226.599C323.721 200.435 302.511 179.225 276.347 179.225C250.182 179.225 228.972 200.435 228.972 226.599C228.972 252.764 250.182 273.974 276.347 273.974Z" fill="#0A0A0A"></path><path d="M322.77 117.838H240.597C236.387 117.838 232.974 121.124 232.974 125.178C232.974 129.231 236.387 132.517 240.597 132.517H322.77C326.98 132.517 330.393 129.231 330.393 125.178C330.393 121.124 326.98 117.838 322.77 117.838Z" fill="#262F63"></path><path d="M282.349 268.633C308.882 268.633 330.392 247.124 330.392 220.591C330.392 194.058 308.882 172.549 282.349 172.549C255.817 172.549 234.307 194.058 234.307 220.591C234.307 247.124 255.817 268.633 282.349 268.633Z" fill="#EBF2FC"></path><path fill-rule="evenodd" clip-rule="evenodd" d="M282.93 231.035C275.056 231.032 268.687 224.76 268.697 217.028C268.713 209.293 275.103 203.029 282.974 203.031C288.039 203.012 292.734 205.678 295.312 210.037L303.131 210.04C301.177 204.652 297.123 200.287 291.895 197.94L291.909 189.036L285.712 189.033V196.222C284.794 196.091 283.859 196.017 282.902 196.017C282.001 196.017 281.118 196.084 280.247 196.198V189.03L274.087 189.029L274.073 197.933C266.707 201.25 261.582 208.55 261.57 217.025C261.556 225.5 266.656 232.804 274.011 236.125L273.998 245.029L280.248 245.032V237.867C281.118 237.981 282.001 238.049 282.903 238.049C283.859 238.049 284.794 237.974 285.713 237.843V245.036L291.82 245.037L291.833 236.134C297.071 233.789 301.137 229.428 303.109 224.038H295.291C292.699 228.393 287.998 231.053 282.929 231.035L282.93 231.035Z" fill="#262F63"></path><rect x="403.69" y="346.242" width="84.3683" height="14.2194" rx="3" fill="url(#paint2_linear_1728_360)"></rect><rect x="391.366" y="317.799" width="84.3683" height="14.2194" rx="3" fill="url(#paint3_linear_1728_360)"></rect><rect x="398.95" y="360.459" width="84.3683" height="14.2194" rx="3" fill="url(#paint4_linear_1728_360)"></rect><rect x="386.626" y="332.021" width="84.3683" height="14.2194" rx="3" fill="url(#paint5_linear_1728_360)"></rect><rect x="403.69" y="374.68" width="84.3683" height="14.2194" rx="3" fill="url(#paint6_linear_1728_360)"></rect><path fill-rule="evenodd" clip-rule="evenodd" d="M490.51 273.039L423.511 302.4L426.928 310.198L426.93 310.197C426.93 310.197 426.93 310.197 426.93 310.198C428.398 313.547 444.586 309.689 463.087 301.582C481.588 293.474 495.397 284.186 493.929 280.836C493.921 280.818 493.912 280.799 493.903 280.781L490.51 273.039Z" fill="#E8A341"></path><ellipse cx="457.015" cy="287.72" rx="36.5752" ry="6.62137" transform="rotate(-23.6645 457.015 287.72)" fill="#F3BF75"></ellipse><ellipse cx="457.014" cy="287.72" rx="31.5303" ry="5.67546" transform="rotate(-23.6645 457.014 287.72)" fill="#E8A341"></ellipse><ellipse cx="457.398" cy="288.587" rx="30.2691" ry="4.72955" transform="rotate(-23.6645 457.398 288.587)" fill="#F3BF75"></ellipse><path fill-rule="evenodd" clip-rule="evenodd" d="M442.615 288.904L381.752 248.324L377.03 255.407L377.031 255.408C377.03 255.409 377.03 255.41 377.029 255.411C375.001 258.453 386.981 270.004 403.787 281.21C420.594 292.416 435.863 299.033 437.892 295.991C437.903 295.974 437.914 295.956 437.925 295.938L442.615 288.904Z" fill="#E8A341"></path><ellipse cx="412.186" cy="268.616" rx="36.5752" ry="6.62137" transform="rotate(33.6935 412.186 268.616)" fill="#F3BF75"></ellipse><ellipse cx="412.187" cy="268.614" rx="31.5303" ry="5.67546" transform="rotate(33.6935 412.187 268.614)" fill="#E8A341"></ellipse><ellipse cx="411.663" cy="269.403" rx="30.2691" ry="4.72955" transform="rotate(33.6935 411.663 269.403)" fill="#F3BF75"></ellipse><path fill-rule="evenodd" clip-rule="evenodd" d="M409.971 229.451C409.774 229.322 409.598 229.171 409.445 228.998C406.02 225.108 415.347 211.299 430.277 198.155C445.142 185.069 459.956 177.575 463.465 181.349L463.56 181.264L471.651 190.419L417.562 237.957L409.908 229.508L409.971 229.451Z" fill="#F3BF75"></path><ellipse cx="444.273" cy="213.939" rx="36.0164" ry="9.38384" transform="rotate(-41.3598 444.273 213.939)" fill="#E8A341"></ellipse><g opacity="0.7"><path opacity="0.4" d="M528.336 332.868C540.427 332.868 550.229 323.062 550.229 310.964C550.229 298.867 540.427 289.061 528.336 289.061C516.244 289.061 506.442 298.867 506.442 310.964C506.442 323.062 516.244 332.868 528.336 332.868Z" fill="#24326E"></path><path d="M535.602 300.885H530.244V298.369H526.43V300.885H521.528V304.699H530.958L521.068 317.019V321.042H526.43V323.562H530.244V321.042H535.142V317.228H525.789L535.602 305.009V300.885Z" fill="#5769B5"></path><path opacity="0.4" d="M469.334 113.726C490.223 113.726 507.157 96.7841 507.157 75.8854C507.157 54.9867 490.223 38.0449 469.334 38.0449C448.445 38.0449 431.511 54.9867 431.511 75.8854C431.511 96.7841 448.445 113.726 469.334 113.726Z" fill="#7083D4"></path><path d="M485.285 82.5071C485.285 79.0531 483.509 75.9803 480.787 74.0817C483.531 71.2377 483.608 67.9514 483.585 67.2347C483.562 62.4464 480.764 59.5032 477.47 57.9325V52.4961H471.187V56.4991H464.18V52.4961H457.889V56.4991H454.458V62.4006H457.897V75.1416V86.9066H453.383V92.8081H457.897V99.2739H464.18V92.9454H471.187V99.2739H477.47V92.5107C481.984 91.2145 485.285 87.2192 485.285 82.5071ZM471.301 62.393C472.369 62.4311 477.302 62.8429 477.302 67.2805C477.302 67.3338 477.302 67.3872 477.31 67.4406C477.31 67.4558 477.317 68.9503 476.067 70.1855C475.068 71.1767 473.429 71.8172 471.271 72.0612H464.18V62.393H471.301ZM474.328 87.0438H464.18V78.0924H469.09C469.967 78.0924 470.806 78.0542 471.614 77.9704H474.328C476.906 77.9704 479.002 80.0062 479.002 82.5071C479.002 85.008 476.906 87.0438 474.328 87.0438Z" fill="#38488D"></path><path opacity="0.4" d="M75.1089 283.635C90.8707 283.635 103.648 270.851 103.648 255.082C103.648 239.313 90.8707 226.529 75.1089 226.529C59.3472 226.529 46.5698 239.313 46.5698 255.082C46.5698 270.851 59.3472 283.635 75.1089 283.635Z" fill="#24326E"></path><path d="M84.6283 259.035C84.6283 256.974 83.568 255.14 81.9436 254.007C83.5817 252.31 83.6272 250.349 83.6135 249.921C83.5999 247.063 81.9299 245.307 79.9642 244.369V241.125H76.2147V243.514H72.0329V241.125H68.2789V243.514H66.2313V247.036H68.2835V254.639V261.661H65.5897V265.183H68.2835V269.041H72.0329V265.265H76.2147V269.041H79.9642V265.005C82.658 264.232 84.6283 261.847 84.6283 259.035ZM76.2829 247.031C76.92 247.054 79.8641 247.3 79.8641 249.948C79.8641 249.98 79.8641 250.012 79.8686 250.044C79.8686 250.053 79.8732 250.945 79.1269 251.682C78.5308 252.273 77.5525 252.656 76.2647 252.801H72.0329V247.031H76.2829ZM78.0894 261.743H72.0329V256.4H74.9634C75.4866 256.4 75.9872 256.378 76.4695 256.328H78.0894C79.6274 256.328 80.8788 257.543 80.8788 259.035C80.8788 260.528 79.6274 261.743 78.0894 261.743Z" fill="#7083D4"></path><path opacity="0.4" d="M91.7218 81.8054C106.853 81.8054 119.118 69.5337 119.118 54.3958C119.118 39.258 106.853 26.9863 91.7218 26.9863C76.5911 26.9863 64.3252 39.258 64.3252 54.3958C64.3252 69.5337 76.5911 81.8054 91.7218 81.8054Z" fill="#7083D4"></path><path d="M114.982 63.8857H99.9632V54.5139L91.9201 62.7476L83.2561 53.7515V63.8857H68.4605V58.9901H78.366V41.6133L91.9473 55.7173L104.853 42.4955V58.9901H114.982V63.8857Z" fill="#24326E"></path></g><defs><linearGradient id="paint0_linear_1728_360" x1="282.159" y1="366.872" x2="282.159" y2="153.963" gradientUnits="userSpaceOnUse"><stop stop-color="#74C0B8"></stop><stop offset="1" stop-color="#4EA399"></stop></linearGradient><linearGradient id="paint1_linear_1728_360" x1="280.928" y1="101.983" x2="280.928" y2="46.0671" gradientUnits="userSpaceOnUse"><stop stop-color="#74C0B8"></stop><stop offset="1" stop-color="#4EA399"></stop></linearGradient><linearGradient id="paint2_linear_1728_360" x1="455.608" y1="362.357" x2="456.501" y2="345.648" gradientUnits="userSpaceOnUse"><stop stop-color="#E8A341"></stop><stop offset="0.98" stop-color="#F3BF75"></stop></linearGradient><linearGradient id="paint3_linear_1728_360" x1="443.285" y1="333.914" x2="444.177" y2="317.204" gradientUnits="userSpaceOnUse"><stop stop-color="#E8A341"></stop><stop offset="0.98" stop-color="#F3BF75"></stop></linearGradient><linearGradient id="paint4_linear_1728_360" x1="450.869" y1="376.574" x2="451.761" y2="359.864" gradientUnits="userSpaceOnUse"><stop stop-color="#E8A341"></stop><stop offset="0.98" stop-color="#F3BF75"></stop></linearGradient><linearGradient id="paint5_linear_1728_360" x1="438.545" y1="348.137" x2="439.438" y2="331.427" gradientUnits="userSpaceOnUse"><stop stop-color="#E8A341"></stop><stop offset="0.98" stop-color="#F3BF75"></stop></linearGradient><linearGradient id="paint6_linear_1728_360" x1="455.608" y1="390.795" x2="456.501" y2="374.085" gradientUnits="userSpaceOnUse"><stop stop-color="#E8A341"></stop><stop offset="0.98" stop-color="#F3BF75"></stop></linearGradient></defs></svg> 